<svg width="24" height="28" viewBox="0 0 24 28" fill="none" xmlns="http://www.w3.org/2000/svg">
<g id="Vector">
<path d="M18.0189 5.87504V22.125H5.15094C2.85844 22.125 1 20.3062 1 18.0625L1 9.93754C1 7.69388 2.85844 5.87504 5.15094 5.87504L18.0189 5.87504Z" fill="white"/>
<path d="M18.8491 27C21.1416 27 23 25.1812 23 22.9375L23 5.0625C23 2.81884 21.1416 1 18.8491 1L12.2075 1C10.832 1 9.71698 2.09131 9.71698 3.4375C9.71698 4.78369 10.832 5.875 12.2075 5.875L18.0189 5.87504V22.125L12.2075 22.125C10.832 22.125 9.71698 23.2163 9.71698 24.5625C9.71698 25.9087 10.832 27 12.2075 27H18.8491Z" fill="white"/>
<path d="M18.0189 5.87504V22.125M18.0189 5.87504L5.15094 5.87504C2.85844 5.87504 1 7.69388 1 9.93753L1 18.0625C1 20.3062 2.85844 22.125 5.15094 22.125H18.0189M18.0189 5.87504L12.2075 5.875C10.832 5.875 9.71698 4.78369 9.71698 3.4375C9.71698 2.09131 10.832 1 12.2075 1L18.8491 1C21.1416 1 23 2.81884 23 5.0625L23 22.9375C23 25.1812 21.1416 27 18.8491 27H12.2075C10.832 27 9.71698 25.9087 9.71698 24.5625C9.71698 23.2163 10.832 22.125 12.2075 22.125L18.0189 22.125" stroke="#9E9E9E"/>
</g>
</svg>
